
<svg xmlns="http://www.w3.org/2000/svg" version="1.1" xmlns:xlink="http://www.w3.org/1999/xlink" preserveAspectRatio="none" x="0px" y="0px" width="854px" height="480px" viewBox="0 0 854 480">
<defs>
<g id="Layer8_0_FILL">
<path fill="#2EB022" stroke="none" d="
M 465 115.2
Q 464.0580078125 115.22578125 463.1 115.25
L 465 115.35
Q 465.0169921875 115.2876953125 465 115.2
M 655.9 110.3
Q 654.7 106.25 652.2 103.7 647.15 98.65 640.55 106.45 636.0845703125 101.6361328125 625.75 100.25 615.4154296875 98.9138671875 608.9 115.05 609.65 110.25 608.3 106.1 605.7 97.7 595.5 100.7 593.4 98.85 590.5 97.5 584.65 94.8 580.55 97.2
L 583.45 98.9
Q 584.4966796875 99.597265625 579.55 97.85 576.9181640625 100.007421875 575.35 104.5 572.25 98.3 567.2 94.7 557.15 87.5 547.55 100.7 543.95 95.65 538.1 92.9 526.35 87.35 514.95 98.75 508.5 94.2 501.05 92.65 486.2 89.5 481.4 104.5 476.85 103.55 472.55 104.55 468.0962890625 105.5541015625 466.25 108.55 465.540625 111.742578125 465 115.2 465.0169921875 115.2876953125 465 115.35 465.0572265625 115.71015625 465.1 116.05
L 465.05 116
Q 466.1228515625 126.3599609375 491.15 118.55 499.165625 126.9560546875 511.6 118.55 527.209375 129.0951171875 537.5 114.4 550.9328125 121.8708984375 557.6 110.05 574.056640625 123.3955078125 584.1 122.1 588.85 127.4 588.5 130.3 587.3 139.55 577.25 137.35
L 577.1 140.6
Q 576.8 144.5 576.05 147.3 573.6 156.4 567.5 152
L 569 154.5
Q 570.7 157.55 571.7 160.45 574.85 169.7 569.6 173.6
L 569.6 176.4 571.75 176.35
Q 575.05 176.4 577.45 176.9 585.15 178.65 580.75 184.75
L 582.7 185.25
Q 585 185.95 586.55 187.1 591.6 190.75 587.7 197.3
L 591 198.35
Q 594.85 199.7 597.75 201.4 605.681640625 206.0302734375 603.9 211.5 604.8943359375 209.1796875 605.5 206.65 606.4 202.9 606.05 200.5 605.65 197.9 603.75 197.3
L 605.15 196.75
Q 606.8 195.9 607.95 194.5 611.6 189.95 608.75 181.4 611.1 179.4 612.7 176.5 615.9 170.65 612.2 166.1 610.2 163.65 610.9 163.45 611.15 163.35 613.65 164.05 619.15 165.6 618.15 160.65 618.5 159.05 618.35 156.9 618.15 152.6 615.85 149.9
L 617.3 151.5
Q 619.1 153.25 620.85 154.1 626.55 156.9 630 149.9
L 631.2 150.95
Q 632.65 152.1 634.1 152.6 638.75 154.2 641.45 148.75
L 640.85 151.5
Q 640.3 154.75 640.6 157.35 641.46640625 165.24375 649.7 163.95
L 642.9 167.25
Q 636.6 172.85 642.15 183.7 641.5 186.5 640.1 188.85 637.2 193.55 633.2 191.25
L 633.55 193.95
Q 633.8 197.15 633.4 199.7 632.2 207.9 625.2 206.6
L 625.55 210.45
Q 625.8 215.05 625.4 218.55 624.15 229.85 616.75 226.45
L 617.85 228.05
Q 619 230.05 619.4 232.05 620.7 238.5 614 242.65
L 616 244.85
Q 617.55 247.95 615.15 252.5
L 620.25 256.65
Q 624.95 261.75 622.95 266.45 619.75 274 622.95 267.8
L 624.5 270.45
Q 626.15 273.6 626.7 275.9 628.5 283.35 618.8 279.9 616.35 282.4 613.1 284.5 606.6 288.65 602.65 286.5
L 601.45 285.6
Q 601.4375 286.3384765625 599 298.55 597.771875 304.89296875 599.7 305.3 602.911328125 303.85390625 606.05 301.1
L 609.3 302.2
Q 613.2 303.3 616.35 303.4 626.4 303.65 625.2 293.45
L 629.45 292.05
Q 634.4 290.15 637.7 287.45 648.25 278.85 638.65 265.65
L 642.2 264.7
Q 646.25 263.35 648.95 261.55 657.6 255.8 649.2 247.4
L 652.65 247
Q 656.65 246.35 659.5 245 668.55 240.7 662.6 231.1 667.4 227.25 670.15 222.2 675.7 212.1 665.5 206.15 669.6 200.65 671.6 194.5 675.7 182.25 665.5 179.3 670.55 174.05 673.65 167.8 679.9 155.35 670.3 150.55 671.95 144.55 671.85 139.3 671.55 128.75 662.6 132.35 665.5 126.6 666.1 120.95 667.3 109.7 655.9 110.3 Z"/>

<path fill="#279C1C" stroke="none" d="
M 557.6 110.05
Q 550.9328125 121.8708984375 537.5 114.4 527.209375 129.0951171875 511.6 118.55 499.165625 126.9560546875 491.15 118.55 466.1228515625 126.3599609375 465.05 116 463.3271484375 115.2935546875 460.9 114.6 460.4279296875 114.46328125 459.95 114.35
L 459.7 115.4 459.95 114.35
Q 459.905859375 114.33828125 459.85 114.3 454.6125 114.2125 449.35 114.1 443.1 116.45 444.95 126.6 441.65234375 122.8134765625 436.25 123.35 430.84765625 123.9365234375 428.65 130.45 419.75 127.1359375 415.4 136.15 411.1 145.2140625 421.9 146.7 420.95 147.8 419.8 149.5 417.45 152.9 416.4 156.05 413.05 166.15 423.85 169.75
L 423.1 171.55
Q 422.35 173.7 422.2 175.5 421.7591796875 181.1326171875 427.45 181.25 423.7453125 181.2953125 420.5 182.7 413.75 185.55 416.15 192.75
L 419 195.05 419.45 195.4 422.7 198
Q 413.85 200.1 413.65 203.2 412.9 213 421.9 210
L 428.45 208.2
Q 421.65 214.5 422.05 216.35 423.2708984375 222.2099609375 428.4 220.6 423.3091796875 222.3337890625 419.55 225.8 411.85 233 421.9 244.5
L 417.9 247
Q 416.8 252.25 417.1 256.3 418.05 269.25 432.45 265.65
L 434.35 266.85
Q 436.7 268.1 438.95 268.65 446.15 270.3 449.75 263.7
L 448.85 266.7
Q 448 270.3 448.2 273.3 448.95 282.9 460.3 282.9
L 460.9 285.75
Q 461.85 289 463.65 291.15 469.45 298.1 481.4 291.5
L 483.4 294.65
Q 485.95 298.25 488.8 300.25 497.8306640625 306.7005859375 506.15 295.5 506.2361328125 295.43671875 506.3 295.35
L 511.4 293.3
Q 517.3 290.65 521.3 287.55 534 277.75 522.6 267.55
L 549.85 283
Q 576.95 298.6 576.3 299.2
L 578.65 301.5
Q 581.7 304.1 585.05 305.55 592.5267578125 308.665234375 599.7 305.3 597.771875 304.89296875 599 298.55 601.4375 286.3384765625 601.45 285.6
L 602.65 286.5
Q 606.6 288.65 613.1 284.5 616.35 282.4 618.8 279.9 628.5 283.35 626.7 275.9 626.15 273.6 624.5 270.45
L 622.95 267.8
Q 619.75 274 622.95 266.45 624.95 261.75 620.25 256.65
L 615.15 252.5
Q 617.55 247.95 616 244.85
L 614 242.65
Q 620.7 238.5 619.4 232.05 619 230.05 617.85 228.05
L 616.75 226.45
Q 624.15 229.85 625.4 218.55 625.8 215.05 625.55 210.45
L 625.2 206.6
Q 632.2 207.9 633.4 199.7 633.8 197.15 633.55 193.95
L 633.2 191.25
Q 637.2 193.55 640.1 188.85 641.5 186.5 642.15 183.7 636.6 172.85 642.9 167.25
L 649.7 163.95
Q 641.46640625 165.24375 640.6 157.35 640.3 154.75 640.85 151.5
L 641.45 148.75
Q 638.75 154.2 634.1 152.6 632.65 152.1 631.2 150.95
L 630 149.9
Q 626.55 156.9 620.85 154.1 619.1 153.25 617.3 151.5
L 615.85 149.9
Q 618.15 152.6 618.35 156.9 618.5 159.05 618.15 160.65 619.15 165.6 613.65 164.05 611.15 163.35 610.9 163.45 610.2 163.65 612.2 166.1 615.9 170.65 612.7 176.5 611.1 179.4 608.75 181.4 611.6 189.95 607.95 194.5 606.8 195.9 605.15 196.75
L 603.75 197.3
Q 605.65 197.9 606.05 200.5 606.4 202.9 605.5 206.65 604.8943359375 209.1796875 603.9 211.5 605.681640625 206.0302734375 597.75 201.4 594.85 199.7 591 198.35
L 587.7 197.3
Q 591.6 190.75 586.55 187.1 585 185.95 582.7 185.25
L 580.75 184.75
Q 585.15 178.65 577.45 176.9 575.05 176.4 571.75 176.35
L 569.6 176.4 569.6 173.6
Q 574.85 169.7 571.7 160.45 570.7 157.55 569 154.5
L 567.5 152
Q 573.6 156.4 576.05 147.3 576.8 144.5 577.1 140.6
L 577.25 137.35
Q 587.3 139.55 588.5 130.3 588.85 127.4 584.1 122.1 574.056640625 123.3955078125 557.6 110.05
M 465 115.2
Q 465.540625 111.742578125 466.25 108.55 464.6724609375 111.15 465 115.2
M 580.55 97.2
Q 580.0396484375 97.5046875 579.55 97.85 584.4966796875 99.597265625 583.45 98.9
L 580.55 97.2 Z"/>

<path fill="#33B926" stroke="none" d="
M 606.05 301.1
Q 602.911328125 303.85390625 599.7 305.3 601.5146484375 305.7431640625 606.05 301.1 Z"/>

<path fill="#006600" stroke="none" d="
M 459.95 114.35
L 459.7 115.4 459.95 114.35 459.95 114.35 Z"/>
</g>

<g id="Layer7_0_FILL">
<path fill="#006600" stroke="none" d="
M 495.45 194.3
L 495.75 190.85
Q 493.5 198.35 488.75 199.9 484.05 201.5 481.45 201.4
L 479.45 201.4
Q 474.05 203.8 471.4 196.1 470.6 193.7 470.15 190.6
L 469.85 187.95
Q 464.45 190.35 459.9 187.45 458.5 186.55 457.35 185.25
L 456.45 184.1
Q 452.85 191.9 445.65 189.75 443.4 189.1 441.1 187.5
L 439.2 186.05
Q 433.25 189.65 438.5 196.35 441.15 199.7 444.95 202.35 438.95 205.35 443.25 212.3 445.4 215.8 448.75 218.65 442.75 227.05 452.85 231.35 457.85 233.55 464.1 234 462.9 238.8 469.6 241.65 473 243.1 476.6 243.55 484.35546875 245.09453125 486.3 251.4 488.2333984375 257.76640625 485.35 268.85 482.51640625 279.98359375 490.45 285.3 498.3943359375 290.60546875 507.25 294.4 507.25 293.8 549 299.8 569.85 302.8 588.7 307.9 600.0021484375 308.8484375 600.6 301.05 601.2478515625 293.2515625 601.2 288.65
L 601.25 284.8
Q 604.85 289.6 612.05 285.25 615.65 283.1 618.5 280 628.7 283.6 626.55 275.45 625.85 272.9 624.05 269.5
L 622.35 266.6
Q 625.95 261.8 620.2 256.55 618.4 254.9 615.85 253.35
L 613.7 252.2
Q 618.5 246.8 614.65 243.7 613.5 242.7 611.55 242.1
L 609.9 241.65
Q 617.7 243.45 617.95 234.55 618 231.8 617.3 228.3
L 616.6 225.35
Q 622.6 230.75 624.5 219 625.1 215.3 625.2 210.35
L 625.2 206.15
Q 633 207.95 633.25 199.55 633.35 196.95 632.65 193.65
L 631.95 190.85
Q 640.95 193.25 641.2 185.55 641.25 183.15 640.45 180.05
L 639.6 177.4
Q 636.6 169.6 643.55 165.55 645.092578125 164.646484375 646.75 164.05 641.25625 164.392578125 640.55 158 640.3 155.3 640.9 151.7
L 641.55 148.65
Q 637.95 155.25 633.6 153.1 632.25 152.4 631 150.95
L 630 149.6
Q 626.4 156.8 621.15 154.4 619.5 153.65 617.9 152
L 616.6 150.55
Q 621.05703125 161.37578125 616.7 162.95 612.7728515625 164.3861328125 612.7 166.45 613.125390625 167.3482421875 614.3 170.25 616.736328125 176.3455078125 608.9 181.25 610.15 184.55 609.95 190.3 609.8 196.05 603.15 197.55 608.182421875 200.4115234375 604.75 209.3 601.367578125 218.1884765625 590.45 212.6 592.201953125 218.6044921875 588.7 220.85 585.1986328125 223.1021484375 582.45 220.2
L 580.15 217.7
Q 571.75 221.3 568.4 215.55 567.35 213.75 566.95 211.2
L 566.75 209.05
Q 562.55 215.05 556.55 211.7 554.7 210.65 552.85 208.8
L 551.4 207.15
Q 545.45 213.75 539.15 207.75 537.2 205.85 535.45 202.95
L 534.1 200.4
Q 533.5 208.8 528 207.35 526.25 206.9 524.25 205.55
L 522.6 204.25
Q 522.600390625 214.8466796875 516 212.85 509.399609375 210.8533203125 505.65 208.15
L 502.5 206.15
Q 496.55 204.3859375 495.9 201.4 495.25 198.4046875 495.45 194.3 Z"/>
</g>

<g id="Layer6_0_FILL">
<path fill="#865716" stroke="none" d="
M 649 147.75
Q 648.95 147.8125 648.9 147.85 648.7765625 147.9388671875 648.65 148 645.17421875 150.6810546875 641.75 154.05 637.85 157.85 634.05 162.75
L 631 166.85 627.85 154.1
Q 625.969921875 156.259765625 623.45 155.85
L 626.2 170.65 608.95 210 574.4 280 574.1 276.65
Q 564.633984375 293.4931640625 567.75 334.15 569.9 361.55 575.75 386.6
L 605.1 386.45
Q 585.3 375.65 586.05 333.95 586.25 320.9 588.5 306.35
L 588.85 294.75
Q 587.1 287.8 606.75 277.5 616.6 272.35 622.75 263.8 622.7451171875 259.8271484375 620.5 257.75 616.6 264.9 605.6 268.25 605.1154296875 268.3974609375 604.6 268.5 601.6302734375 269.328125 598.45 269.5
L 595.5 269.45
Q 591.4 261.25 608.55 226.55 612.272265625 219.5412109375 615.45 213.4 615.49921875 213.3744140625 615.5 213.3 629.9287109375 185.844921875 633.85 176.45 635.28671875 173.0138671875 637.05 169.8 642.7234375 159.6814453125 651.85 152 657.8 146.95 667.4 139.05 658.008984375 141.0064453125 649 147.75 Z"/>

<path fill="#6F450A" stroke="none" d="
M 447.85 190.7
L 443.2 188.95 445.9 207.15 451.3 212.35
Q 458.05 219.15 465.2 227.3 488 253.15 505.35 281.95 522.75 310.75 510.5 351 504.4 371.15 494.8 385.5 494.05 386.95 575.75 386.6 569.9 361.55 567.75 334.15 564.633984375 293.4931640625 574.1 276.65
L 572.5 257
Q 568.9 251 578.95 229.45 580.8189453125 225.444921875 583.05 221.15 580.4091796875 225.4 582.25 222 582.589453125 221.4287109375 582.9 221.05
L 580.65 219.95
Q 581.45 216.1 569.35 234.95 564.5 242.45 559.4 247.95 554.3 253.4 551.4 254.1 546.6 255.3 547.55 233.25
L 549.45 210.95 549.45 209.5
Q 547.060546875 211.7908203125 542.45 210.75
L 541.8 210.95
Q 541.4796875 223.9314453125 537.45 237.55 533.4703125 251.2185546875 535.05 266.6 528.85 256.75 520.7 227.5
L 512.9 212.15 507.55 210.2
Q 514 220.6 512.1 247.9 511.15 261.6 514 273.3 502.3 261.2 489.3 243.2
L 477.55 227.25 479.45 222.5 486.1 201.25
Q 484.044921875 202.28203125 481.85 202.1 481.4033203125 201.6306640625 481.45 202.15 481.480859375 202.323828125 481.5 202.55
L 481.4 202.25
Q 481.4970703125 202.901171875 477.65 212.05 474.65 219.15 469.85 223.45
L 451.65 202.35 447.85 190.7 Z"/>
</g>

<g id="Layer4_0_FILL">
<path fill="#B27F3A" stroke="none" d="
M 552.15 207.75
L 552.15 209.25 540.45 209.25 540.45 207.75 532.55 207.75 532.55 215.3 532.55 218.7 562.75 218.7 562.75 215.3 562.75 207.75 552.15 207.75
M 552.15 207.75
L 552.15 205.1 540.45 205.1 540.45 207.75 540.45 209.25 552.15 209.25 552.15 207.75
M 569.15 222.85
L 569.15 215.3 562.75 215.3 562.75 218.7 532.55 218.7 532.55 215.3 526.5 215.3 526.5 222.85 569.15 222.85 Z"/>
</g>

<g id="Layer3_0_FILL">
<path fill="#92590B" stroke="none" d="
M 567.95 274.95
L 567.95 232.2 524.1 232.2 524.1 274.95 567.95 274.95 Z"/>
</g>

<g id="Layer2_0_FILL">
<path fill="#B27F3A" stroke="none" d="
M 588.1 223
L 577 223 577 283.1 588.1 283.1 588.1 223
M 585.05 225.55
Q 585.1123046875 225.55 585.15 225.55 585.7 225.55 586.05 225.9 586.3751953125 226.2251953125 586.4 226.65 586.4947265625 226.6947265625 586.55 226.75 586.85 227.05 586.85 227.45 586.85 227.85 586.55 228.15 586.25 228.45 585.85 228.45 585.45 228.45 585.15 228.15 584.6 228.15 584.2 227.75 583.85 227.4 583.85 226.85 583.85 226.6392578125 583.9 226.45 583.7 226.25 583.7 225.95 583.7 225.65 583.9 225.4 584.15 225.2 584.45 225.2 584.75 225.2 584.95 225.4 585.0236328125 225.4736328125 585.05 225.55
M 512.2 232.65
L 510.7 230.1 510.7 279.75 523.7 279.75 523.7 224.45 512.2 232.65
M 527.9 221.45
L 549.6 205.95 544.35 197.1 507 223.8 510.7 230.1 512.2 232.65 523.7 224.45 527.9 221.45
M 514.35 225.2
Q 514.85 225.2 515.2 225.55 515.6 225.95 515.6 226.45 515.6 226.95 515.2 227.3 514.85 227.7 514.35 227.7 513.85 227.7 513.45 227.3 513.1 226.95 513.1 226.45 513.1 225.95 513.45 225.55 513.85 225.2 514.35 225.2
M 533.1 221.45
L 527.9 221.45 523.7 224.45 523.7 279.75 523.7 280.35 533.1 280.35 533.1 240.4 529.7 240.4 529.7 232.2 533.1 232.2 533.1 222.05 533.1 221.45
M 530.95 223.55
Q 531.3 223.55 531.5 223.75 531.75 224 531.75 224.35 531.75 224.7 531.5 224.9 531.3 225.15 530.95 225.15 530.6 225.15 530.35 224.9 530.15 224.7 530.15 224.35 530.15 224 530.35 223.75 530.6 223.55 530.95 223.55
M 571 232.65
L 567.85 232.65 567.85 240.4 566.9 240.4 566.9 283.35 576.55 283.35 576.55 222.75 571 222.75 571 232.65
M 567.85 232.65
L 567.85 232.2 533.1 232.2 529.7 232.2 529.7 240.4 533.1 240.4 566.9 240.4 567.85 240.4 567.85 232.65
M 530.9 233.55
Q 531.15 233.35 531.45 233.35 531.75 233.35 531.95 233.55 532.2 233.8 532.2 234.1 532.2 234.4 531.95 234.6 531.75 234.85 531.45 234.85 531.15 234.85 530.9 234.6 530.7 234.4 530.7 234.1 530.7 233.8 530.9 233.55
M 532 237.95
Q 532.25 238.2 532.25 238.5 532.25 238.8 532 239 531.8 239.25 531.5 239.25 531.2 239.25 530.95 239 530.75 238.8 530.75 238.5 530.75 238.2 530.95 237.95 531.2 237.75 531.5 237.75 531.8 237.75 532 237.95
M 565.95 233.55
Q 566.4 233.55 566.7 233.85 567 234.15 567 234.6 567 235.05 566.7 235.35 566.4 235.65 565.95 235.65 565.5 235.65 565.2 235.35 564.9 235.05 564.9 234.6 564.9 234.15 565.2 233.85 565.5 233.55 565.95 233.55
M 565.35 237.9
Q 565.7 237.9 565.9 238.1 566.15 238.35 566.15 238.7 566.15 239.05 565.9 239.25 565.7 239.5 565.35 239.5 565 239.5 564.75 239.25 564.55 239.05 564.55 238.7 564.55 238.35 564.75 238.1 565 237.9 565.35 237.9
M 567.85 232.2
L 567.85 232.65 571 232.65 571 222.75 571 222.05 533.1 222.05 533.1 232.2 567.85 232.2
M 568.95 226.7
Q 568.95 226.35 569.2 226.05 569.5 225.8 569.85 225.8 570.2 225.8 570.45 226.05 570.75 226.35 570.75 226.7 570.75 227.05 570.45 227.3 570.2 227.6 569.85 227.6 569.5 227.6 569.2 227.3 568.95 227.05 568.95 226.7 Z"/>

<path fill="#666666" stroke="none" d="
M 586.55 226.75
Q 586.4947265625 226.6947265625 586.4 226.65 586.45 226.747265625 586.45 226.85 586.45 227.4 586.05 227.75 585.7 228.15 585.15 228.15 585.45 228.45 585.85 228.45 586.25 228.45 586.55 228.15 586.85 227.85 586.85 227.45 586.85 227.05 586.55 226.75
M 585.05 225.55
Q 585.0236328125 225.4736328125 584.95 225.4 584.75 225.2 584.45 225.2 584.15 225.2 583.9 225.4 583.7 225.65 583.7 225.95 583.7 226.25 583.9 226.45 584.15 226.7 584.45 226.7 584.75 226.7 584.95 226.45 585.2 226.25 585.2 225.95 585.2 225.73828125 585.05 225.55
M 585.15 225.55
Q 585.1123046875 225.55 585.05 225.55 585.2 225.73828125 585.2 225.95 585.2 226.25 584.95 226.45 584.75 226.7 584.45 226.7 584.15 226.7 583.9 226.45 583.85 226.6392578125 583.85 226.85 583.85 227.4 584.2 227.75 584.6 228.15 585.15 228.15 585.7 228.15 586.05 227.75 586.45 227.4 586.45 226.85 586.45 226.747265625 586.4 226.65 586.3751953125 226.2251953125 586.05 225.9 585.7 225.55 585.15 225.55
M 515.2 225.55
Q 514.85 225.2 514.35 225.2 513.85 225.2 513.45 225.55 513.1 225.95 513.1 226.45 513.1 226.95 513.45 227.3 513.85 227.7 514.35 227.7 514.85 227.7 515.2 227.3 515.6 226.95 515.6 226.45 515.6 225.95 515.2 225.55
M 531.5 223.75
Q 531.3 223.55 530.95 223.55 530.6 223.55 530.35 223.75 530.15 224 530.15 224.35 530.15 224.7 530.35 224.9 530.6 225.15 530.95 225.15 531.3 225.15 531.5 224.9 531.75 224.7 531.75 224.35 531.75 224 531.5 223.75
M 565.9 238.1
Q 565.7 237.9 565.35 237.9 565 237.9 564.75 238.1 564.55 238.35 564.55 238.7 564.55 239.05 564.75 239.25 565 239.5 565.35 239.5 565.7 239.5 565.9 239.25 566.15 239.05 566.15 238.7 566.15 238.35 565.9 238.1
M 566.7 233.85
Q 566.4 233.55 565.95 233.55 565.5 233.55 565.2 233.85 564.9 234.15 564.9 234.6 564.9 235.05 565.2 235.35 565.5 235.65 565.95 235.65 566.4 235.65 566.7 235.35 567 235.05 567 234.6 567 234.15 566.7 233.85
M 532.25 238.5
Q 532.25 238.2 532 237.95 531.8 237.75 531.5 237.75 531.2 237.75 530.95 237.95 530.75 238.2 530.75 238.5 530.75 238.8 530.95 239 531.2 239.25 531.5 239.25 531.8 239.25 532 239 532.25 238.8 532.25 238.5
M 531.45 233.35
Q 531.15 233.35 530.9 233.55 530.7 233.8 530.7 234.1 530.7 234.4 530.9 234.6 531.15 234.85 531.45 234.85 531.75 234.85 531.95 234.6 532.2 234.4 532.2 234.1 532.2 233.8 531.95 233.55 531.75 233.35 531.45 233.35
M 569.2 226.05
Q 568.95 226.35 568.95 226.7 568.95 227.05 569.2 227.3 569.5 227.6 569.85 227.6 570.2 227.6 570.45 227.3 570.75 227.05 570.75 226.7 570.75 226.35 570.45 226.05 570.2 225.8 569.85 225.8 569.5 225.8 569.2 226.05
M 538.75 217.45
Q 539.05 217.2 539.05 216.85 539.05 216.5 538.75 216.2 538.5 215.95 538.15 215.95 537.8 215.95 537.5 216.2 537.25 216.5 537.25 216.85 537.25 217.2 537.5 217.45 537.8 217.75 538.15 217.75 538.5 217.75 538.75 217.45
M 559.95 217.15
Q 560.25 216.85 560.25 216.45 560.25 216.05 559.95 215.75 559.65 215.45 559.25 215.45 558.85 215.45 558.55 215.75 558.25 216.05 558.25 216.45 558.25 216.85 558.55 217.15 558.85 217.45 559.25 217.45 559.65 217.45 559.95 217.15 Z"/>
</g>

<g id="Layer1_0_FILL">
<path fill="#B27F3A" stroke="none" d="
M 586.2 232.2
L 592.3 223.55 548.25 192.35 542.15 201 586.2 232.2
M 586.15 226.3
Q 586.65 226.3 586.95 226.6 587.3 226.95 587.3 227.45 587.3 227.95 586.95 228.25 586.65 228.6 586.15 228.6 585.65 228.6 585.3 228.25 585 227.95 585 227.45 585 226.95 585.3 226.6 585.65 226.3 586.15 226.3 Z"/>

<path fill="#666666" stroke="none" d="
M 586.95 226.6
Q 586.65 226.3 586.15 226.3 585.65 226.3 585.3 226.6 585 226.95 585 227.45 585 227.95 585.3 228.25 585.65 228.6 586.15 228.6 586.65 228.6 586.95 228.25 587.3 227.95 587.3 227.45 587.3 226.95 586.95 226.6 Z"/>
</g>

<g id="Layer0_0_FILL">
<path fill="#865716" stroke="none" d="
M 524.4 375.75
L 524.45 375.75 570.25 375.75 570.75 375.75 570.75 373.45 524.4 373.45 524.4 375.75
M 525.5 360.7
L 525.55 360.7 571.35 360.7 571.85 360.7 571.85 358.4 525.5 358.4 525.5 360.7
M 524.65 346.25
L 524.7 346.25 570.5 346.25 571 346.25 571 343.95 524.65 343.95 524.65 346.25
M 526.5 331.7
L 526.55 331.7 572.35 331.7 572.85 331.7 572.85 329.4 526.5 329.4 526.5 331.7
M 526 319.6
L 526.05 319.6 571.85 319.6 572.35 319.6 572.35 317.3 526 317.3 526 319.6
M 526 307.65
L 526.05 307.65 571.85 307.65 572.35 307.65 572.35 305.35 526 305.35 526 307.65
M 572.35 294.05
L 572.35 291.75 526 291.75 526 294.05 526.05 294.05 571.85 294.05 572.35 294.05 Z"/>

<path fill="#B27F3A" stroke="none" d="
M 524.45 375.75
L 524.45 379.2 570.25 379.2 570.25 375.75 524.45 375.75
M 525.55 360.7
L 525.55 364.15 571.35 364.15 571.35 360.7 525.55 360.7
M 524.7 346.25
L 524.7 349.7 570.5 349.7 570.5 346.25 524.7 346.25
M 526.55 331.7
L 526.55 335.15 572.35 335.15 572.35 331.7 526.55 331.7
M 526.05 319.6
L 526.05 323.05 571.85 323.05 571.85 319.6 526.05 319.6
M 526.05 307.65
L 526.05 311.1 571.85 311.1 571.85 307.65 526.05 307.65
M 571.85 294.05
L 526.05 294.05 526.05 297.5 571.85 297.5 571.85 294.05 Z"/>
</g>

<path id="Layer8_0_1_STROKES" stroke="#238B1A" stroke-width="1" stroke-linejoin="round" stroke-linecap="round" fill="none" d="
M 606.05 301.1
L 609.3 302.2
Q 613.2 303.3 616.35 303.4 626.4 303.65 625.2 293.45
L 629.45 292.05
Q 634.4 290.15 637.7 287.45 648.25 278.85 638.65 265.65
L 642.2 264.7
Q 646.25 263.35 648.95 261.55 657.6 255.8 649.2 247.4
L 652.65 247
Q 656.65 246.35 659.5 245 668.55 240.7 662.6 231.1 667.4 227.25 670.15 222.2 675.7 212.1 665.5 206.15 669.6 200.65 671.6 194.5 675.7 182.25 665.5 179.3 670.55 174.05 673.65 167.8 679.9 155.35 670.3 150.55 671.95 144.55 671.85 139.3 671.55 128.75 662.6 132.35 665.5 126.6 666.1 120.95 667.3 109.7 655.9 110.3 654.7 106.25 652.2 103.7 647.15 98.65 640.55 106.45 636.0845703125 101.6361328125 625.75 100.275 615.4154296875 98.9138671875 608.9 115.05 609.65 110.25 608.3 106.1 605.7 97.7 595.5 100.7 593.4 98.85 590.5 97.5 584.65 94.8 580.55 97.2
M 579.575 97.875
Q 576.9181640625 100.007421875 575.35 104.5 572.25 98.3 567.2 94.7 557.15 87.5 547.55 100.7 543.95 95.65 538.1 92.9 526.35 87.35 514.95 98.75 508.5 94.2 501.05 92.65 486.2 89.5 481.4 104.5 476.85 103.55 472.55 104.55 468.0962890625 105.5541015625 466.25 108.575
M 465 115.2
Q 465.0169921875 115.2876953125 465.025 115.375 465.0572265625 115.71015625 465.1 116.05
L 465.075 116.025
M 606.05 301.1
Q 602.911328125 303.85390625 599.725 305.325 592.5267578125 308.665234375 585.05 305.55 581.7 304.1 578.65 301.5
L 576.3 299.2
Q 576.95 298.6 549.85 283
L 522.6 267.55
Q 534 277.75 521.3 287.55 517.3 290.65 511.4 293.3
L 506.3 295.35
Q 506.2361328125 295.43671875 506.175 295.525 497.8306640625 306.7005859375 488.8 300.25 485.95 298.25 483.4 294.65
L 481.4 291.5
Q 469.45 298.1 463.65 291.15 461.85 289 460.9 285.75
L 460.3 282.9
Q 448.95 282.9 448.2 273.3 448 270.3 448.85 266.7
L 449.75 263.7
Q 446.15 270.3 438.95 268.65 436.7 268.1 434.35 266.85
L 432.45 265.65
Q 418.05 269.25 417.1 256.3 416.8 252.25 417.9 247
L 421.9 244.5
Q 411.85 233 419.55 225.8 423.3091796875 222.3337890625 428.4 220.625 423.2708984375 222.2099609375 422.05 216.35 421.65 214.5 428.45 208.2
L 421.9 210
Q 412.9 213 413.65 203.2 413.85 200.1 422.7 198
L 419.45 195.425
M 419 195.05
L 416.15 192.75
Q 413.75 185.55 420.5 182.7 423.7453125 181.2953125 427.45 181.25 421.7591796875 181.1326171875 422.2 175.5 422.35 173.7 423.1 171.55
L 423.85 169.75
Q 413.05 166.15 416.4 156.05 417.45 152.9 419.8 149.5 420.95 147.8 421.9 146.7 411.1 145.2140625 415.425 136.175 419.75 127.1359375 428.65 130.45 430.84765625 123.9365234375 436.25 123.375 441.65234375 122.8134765625 444.95 126.6 443.1 116.45 449.35 114.1 454.6125 114.2125 459.875 114.325 459.925 114.3373046875 459.975 114.35 460.4279296875 114.46328125 460.9 114.6 463.3271484375 115.2935546875 465.075 116.025
M 580.55 97.2
Q 580.0396484375 97.5046875 579.575 97.875
M 459.875 114.325
Q 459.905859375 114.33828125 459.95 114.35
L 459.975 114.35
M 466.25 108.575
Q 464.6724609375 111.15 465 115.2"/>

<path id="Layer7_0_1_STROKES" stroke="#035603" stroke-width="1" stroke-linejoin="round" stroke-linecap="round" fill="none" d="
M 646.75 164.05
Q 645.092578125 164.646484375 643.55 165.55 636.6 169.6 639.6 177.4
L 640.45 180.05
Q 641.25 183.15 641.2 185.55 640.95 193.25 631.95 190.85
L 632.65 193.65
Q 633.35 196.95 633.25 199.55 633 207.95 625.2 206.15
L 625.2 210.35
Q 625.1 215.3 624.5 219 622.6 230.75 616.6 225.35
L 617.3 228.3
Q 618 231.8 617.95 234.55 617.7 243.45 609.9 241.65
L 611.55 242.1
Q 613.5 242.7 614.65 243.7 618.5 246.8 613.7 252.2
L 615.85 253.35
Q 618.4 254.9 620.2 256.55 625.95 261.8 622.35 266.6
L 624.05 269.5
Q 625.85 272.9 626.55 275.45 628.7 283.6 618.5 280 615.65 283.1 612.05 285.25 604.85 289.6 601.25 284.8
L 601.2 288.65
Q 601.2478515625 293.2515625 600.625 301.05 600.0021484375 308.8484375 588.7 307.9 569.85 302.8 549 299.8 507.25 293.8 507.25 294.4 498.3943359375 290.60546875 490.45 285.3 482.51640625 279.98359375 485.375 268.875 488.2333984375 257.76640625 486.3 251.425 484.35546875 245.09453125 476.6 243.55 473 243.1 469.6 241.65 462.9 238.8 464.1 234 457.85 233.55 452.85 231.35 442.75 227.05 448.75 218.65 445.4 215.8 443.25 212.3 438.95 205.35 444.95 202.35 441.15 199.7 438.5 196.35 433.25 189.65 439.2 186.05
L 441.1 187.5
Q 443.4 189.1 445.65 189.75 452.85 191.9 456.45 184.1
L 457.35 185.25
Q 458.5 186.55 459.9 187.45 464.45 190.35 469.85 187.95
L 470.15 190.6
Q 470.6 193.7 471.4 196.1 474.05 203.8 479.45 201.4
L 481.45 201.4
Q 484.05 201.5 488.775 199.925 493.5 198.35 495.75 190.85
L 495.45 194.3
Q 495.25 198.4046875 495.9 201.4 496.55 204.3859375 502.5 206.15
L 505.65 208.15
Q 509.399609375 210.8533203125 516 212.85 522.600390625 214.8466796875 522.6 204.25
L 524.25 205.55
Q 526.25 206.9 528 207.35 533.5 208.8 534.1 200.4
L 535.45 202.95
Q 537.2 205.85 539.15 207.75 545.45 213.75 551.4 207.15
L 552.85 208.8
Q 554.7 210.65 556.55 211.7 562.55 215.05 566.75 209.05
L 566.95 211.2
Q 567.35 213.75 568.4 215.55 571.75 221.3 580.15 217.7
L 582.45 220.2
Q 585.1986328125 223.1021484375 588.7 220.85 592.201953125 218.6044921875 590.45 212.6 601.367578125 218.1884765625 604.775 209.3 608.182421875 200.4115234375 603.15 197.55 609.8 196.05 609.975 190.3 610.15 184.55 608.9 181.25 616.736328125 176.3455078125 614.3 170.275 613.125390625 167.3482421875 612.725 166.45 612.71875 166.64609375 612.75 166.85 612.291015625 165.4798828125 612.725 166.45 612.7728515625 164.3861328125 616.725 162.95 621.05703125 161.37578125 616.6 150.55
L 617.9 152
Q 619.5 153.65 621.15 154.4 626.4 156.8 630 149.6
L 631 150.95
Q 632.25 152.4 633.6 153.1 637.95 155.25 641.55 148.65
L 640.9 151.7
Q 640.3 155.3 640.55 158 641.25625 164.392578125 646.75 164.05 648.6359375 163.9240234375 651.1 163"/>

<path id="Layer6_0_1_STROKES" stroke="#5C3908" stroke-width="1" stroke-linejoin="round" stroke-linecap="round" fill="none" d="
M 574.125 276.65
L 574.4 280 608.95 210 626.2 170.65 623.45 155.85
Q 625.969921875 156.259765625 627.85 154.1
L 631 166.85 634.05 162.75
Q 637.85 157.85 641.75 154.05 645.17421875 150.6810546875 648.65 148.025 648.7765625 147.9388671875 648.9 147.85 648.95 147.8125 649 147.775 658.008984375 141.0064453125 667.4 139.05 657.8 146.95 651.85 152 642.7234375 159.6814453125 637.075 169.825 635.28671875 173.0138671875 633.85 176.45 629.9287109375 185.844921875 615.525 213.325 615.49921875 213.3744140625 615.475 213.425 612.272265625 219.5412109375 608.55 226.55 591.4 261.25 595.5 269.45
L 598.45 269.5
Q 601.6302734375 269.328125 604.625 268.525 605.1154296875 268.3974609375 605.6 268.25 616.6 264.9 620.5 257.75 622.7451171875 259.8271484375 622.75 263.8 616.6 272.35 606.75 277.5 587.1 287.8 588.85 294.75
L 588.5 306.35
Q 586.25 320.9 586.05 333.95 585.3 375.65 605.1 386.45
L 575.75 386.6
Q 494.05 386.95 494.8 385.5 504.4 371.15 510.5 351 522.75 310.75 505.35 281.95 488 253.15 465.2 227.3 458.05 219.15 451.3 212.35
L 445.9 207.15 443.2 188.95 447.85 190.7 451.65 202.35 469.85 223.45
Q 474.65 219.15 477.65 212.05 481.4970703125 202.901171875 481.4 202.25
L 481.45 202.15
Q 481.4033203125 201.6306640625 481.85 202.1 484.044921875 202.28203125 486.1 201.25
L 479.45 222.5 477.55 227.25 489.3 243.2
Q 502.3 261.2 514 273.3 511.15 261.6 512.1 247.9 514 220.6 507.55 210.2
L 512.9 212.15 520.7 227.5
Q 528.85 256.75 535.05 266.6 533.4703125 251.2185546875 537.475 237.575 541.4796875 223.9314453125 541.8 210.95
L 542.45 210.75
Q 547.060546875 211.7908203125 549.45 209.5
L 549.45 210.95 547.55 233.25
Q 546.6 255.3 551.4 254.1 554.3 253.4 559.4 247.95 564.5 242.45 569.35 234.95 581.45 216.1 580.65 219.95
L 582.9 221.075 583.05 221.175
Q 580.8189453125 225.444921875 578.95 229.45 568.9 251 572.5 257
L 574.125 276.65 Z"/>

<path id="Layer4_0_1_STROKES" stroke="#764708" stroke-width="1" stroke-linejoin="round" stroke-linecap="round" fill="none" d="
M 526.5 215.3
L 532.55 215.3 532.55 207.75 540.45 207.75 540.45 205.1 552.15 205.1 552.15 207.75 562.75 207.75 562.75 215.3 569.15 215.3 569.15 222.85 526.5 222.85 526.5 215.3 Z
M 552.15 207.75
L 552.15 209.25 540.45 209.25 540.45 207.75
M 562.75 215.3
L 562.75 218.7 532.55 218.7 532.55 215.3"/>

<path id="Layer3_0_1_STROKES" stroke="#000000" stroke-width="1" stroke-linejoin="round" stroke-linecap="round" fill="none" d="
M 524.1 274.95
L 524.1 232.2 567.95 232.2 567.95 274.95"/>

<path id="Layer2_0_1_STROKES" stroke="#000000" stroke-width="1" stroke-linejoin="round" stroke-linecap="round" fill="none" d="
M 586.85 227.45
Q 586.85 227.85 586.55 228.15 586.25 228.45 585.85 228.45 585.45 228.45 585.15 228.15 584.6 228.15 584.2 227.75 583.85 227.4 583.85 226.85 583.85 226.6392578125 583.9 226.45 583.7 226.25 583.7 225.95 583.7 225.65 583.9 225.4 584.15 225.2 584.45 225.2 584.75 225.2 584.95 225.4 585.0236328125 225.4736328125 585.075 225.55 585.1123046875 225.55 585.15 225.55 585.7 225.55 586.05 225.9 586.3751953125 226.2251953125 586.425 226.65 586.4947265625 226.6947265625 586.55 226.75 586.85 227.05 586.85 227.45 Z
M 585.075 225.55
Q 585.2 225.73828125 585.2 225.95 585.2 226.25 584.95 226.45 584.75 226.7 584.45 226.7 584.15 226.7 583.9 226.45
M 586.425 226.65
Q 586.45 226.747265625 586.45 226.85 586.45 227.4 586.05 227.75 585.7 228.15 585.15 228.15
M 570.75 226.7
Q 570.75 227.05 570.45 227.3 570.2 227.6 569.85 227.6 569.5 227.6 569.2 227.3 568.95 227.05 568.95 226.7 568.95 226.35 569.2 226.05 569.5 225.8 569.85 225.8 570.2 225.8 570.45 226.05 570.75 226.35 570.75 226.7 Z
M 560.25 216.45
Q 560.25 216.85 559.95 217.15 559.65 217.45 559.25 217.45 558.85 217.45 558.55 217.15 558.25 216.85 558.25 216.45 558.25 216.05 558.55 215.75 558.85 215.45 559.25 215.45 559.65 215.45 559.95 215.75 560.25 216.05 560.25 216.45 Z
M 539.05 216.85
Q 539.05 217.2 538.75 217.45 538.5 217.75 538.15 217.75 537.8 217.75 537.5 217.45 537.25 217.2 537.25 216.85 537.25 216.5 537.5 216.2 537.8 215.95 538.15 215.95 538.5 215.95 538.75 216.2 539.05 216.5 539.05 216.85 Z
M 531.75 224.35
Q 531.75 224.7 531.5 224.9 531.3 225.15 530.95 225.15 530.6 225.15 530.35 224.9 530.15 224.7 530.15 224.35 530.15 224 530.35 223.75 530.6 223.55 530.95 223.55 531.3 223.55 531.5 223.75 531.75 224 531.75 224.35 Z
M 532.2 234.1
Q 532.2 234.4 531.95 234.6 531.75 234.85 531.45 234.85 531.15 234.85 530.9 234.6 530.7 234.4 530.7 234.1 530.7 233.8 530.9 233.55 531.15 233.35 531.45 233.35 531.75 233.35 531.95 233.55 532.2 233.8 532.2 234.1 Z
M 532.25 238.5
Q 532.25 238.8 532 239 531.8 239.25 531.5 239.25 531.2 239.25 530.95 239 530.75 238.8 530.75 238.5 530.75 238.2 530.95 237.95 531.2 237.75 531.5 237.75 531.8 237.75 532 237.95 532.25 238.2 532.25 238.5 Z
M 567 234.6
Q 567 235.05 566.7 235.35 566.4 235.65 565.95 235.65 565.5 235.65 565.2 235.35 564.9 235.05 564.9 234.6 564.9 234.15 565.2 233.85 565.5 233.55 565.95 233.55 566.4 233.55 566.7 233.85 567 234.15 567 234.6 Z
M 566.15 238.7
Q 566.15 239.05 565.9 239.25 565.7 239.5 565.35 239.5 565 239.5 564.75 239.25 564.55 239.05 564.55 238.7 564.55 238.35 564.75 238.1 565 237.9 565.35 237.9 565.7 237.9 565.9 238.1 566.15 238.35 566.15 238.7 Z
M 515.6 226.45
Q 515.6 226.95 515.2 227.3 514.85 227.7 514.35 227.7 513.85 227.7 513.45 227.3 513.1 226.95 513.1 226.45 513.1 225.95 513.45 225.55 513.85 225.2 514.35 225.2 514.85 225.2 515.2 225.55 515.6 225.95 515.6 226.45 Z"/>

<path id="Layer2_0_2_STROKES" stroke="#764708" stroke-width="1" stroke-linejoin="round" stroke-linecap="round" fill="none" d="
M 533.1 222.05
L 533.1 232.2 567.85 232.2 567.85 232.65 571 232.65 571 222.75 571 222.05 533.1 222.05 533.1 221.45 527.9 221.45 523.7 224.45 523.7 279.75 523.7 280.35 533.1 280.35 533.1 240.4 529.7 240.4 529.7 232.2 533.1 232.2
M 571 222.75
L 576.55 222.75 576.55 283.35 566.9 283.35 566.9 240.4 533.1 240.4
M 567.85 232.65
L 567.85 240.4 566.9 240.4
M 577 223
L 588.1 223 588.1 283.1 577 283.1 577 223 Z
M 523.7 279.75
L 510.7 279.75 510.7 230.1 507 223.8 544.35 197.1 549.6 205.95 527.9 221.45
M 523.7 224.45
L 512.2 232.65 510.7 230.1"/>

<path id="Layer1_0_1_STROKES" stroke="#000000" stroke-width="1" stroke-linejoin="round" stroke-linecap="round" fill="none" d="
M 587.3 227.45
Q 587.3 227.95 586.95 228.25 586.65 228.6 586.15 228.6 585.65 228.6 585.3 228.25 585 227.95 585 227.45 585 226.95 585.3 226.6 585.65 226.3 586.15 226.3 586.65 226.3 586.95 226.6 587.3 226.95 587.3 227.45 Z"/>

<path id="Layer1_0_2_STROKES" stroke="#764708" stroke-width="1" stroke-linejoin="round" stroke-linecap="round" fill="none" d="
M 542.15 201
L 548.25 192.35 592.3 223.55 586.2 232.2 542.15 201 Z"/>

<path id="Layer0_0_1_STROKES" stroke="#6F450A" stroke-width="1" stroke-linejoin="round" stroke-linecap="round" fill="none" d="
M 526.05 294.05
L 526 294.05 526 291.75 572.35 291.75 572.35 294.05 571.85 294.05 571.85 297.5 526.05 297.5 526.05 294.05 571.85 294.05
M 572.35 331.7
L 572.35 335.15 526.55 335.15 526.55 331.7 526.5 331.7 526.5 329.4 572.85 329.4 572.85 331.7 572.35 331.7 526.55 331.7
M 524.7 346.25
L 524.65 346.25 524.65 343.95 571 343.95 571 346.25 570.5 346.25 570.5 349.7 524.7 349.7 524.7 346.25 570.5 346.25
M 571.85 319.6
L 571.85 323.05 526.05 323.05 526.05 319.6 526 319.6 526 317.3 572.35 317.3 572.35 319.6 571.85 319.6 526.05 319.6
M 571.85 307.65
L 571.85 311.1 526.05 311.1 526.05 307.65 526 307.65 526 305.35 572.35 305.35 572.35 307.65 571.85 307.65 526.05 307.65
M 570.25 375.75
L 570.25 379.2 524.45 379.2 524.45 375.75 524.4 375.75 524.4 373.45 570.75 373.45 570.75 375.75 570.25 375.75 524.45 375.75
M 571.35 360.7
L 571.35 364.15 525.55 364.15 525.55 360.7 525.5 360.7 525.5 358.4 571.85 358.4 571.85 360.7 571.35 360.7 525.55 360.7"/>
</defs>

<g transform="matrix( 1, 0, 0, 1, 0,0) ">
<use xlink:href="#Layer8_0_FILL"/>

<use xlink:href="#Layer8_0_1_STROKES"/>
</g>

<g transform="matrix( 1, 0, 0, 1, 0,0) ">
<use xlink:href="#Layer7_0_FILL"/>

<use xlink:href="#Layer7_0_1_STROKES"/>
</g>

<g transform="matrix( 1, 0, 0, 1, 0,0) ">
<use xlink:href="#Layer6_0_FILL"/>

<use xlink:href="#Layer6_0_1_STROKES"/>
</g>

<g transform="matrix( 1, 0, 0, 1, 0,0) ">
<use xlink:href="#Layer4_0_FILL"/>

<use xlink:href="#Layer4_0_1_STROKES"/>
</g>

<g transform="matrix( 1, 0, 0, 1, 0,0) ">
<use xlink:href="#Layer3_0_FILL"/>

<use xlink:href="#Layer3_0_1_STROKES"/>
</g>

<g transform="matrix( 1, 0, 0, 1, 0,0) ">
<use xlink:href="#Layer2_0_FILL"/>

<use xlink:href="#Layer2_0_1_STROKES"/>

<use xlink:href="#Layer2_0_2_STROKES"/>
</g>

<g transform="matrix( 1, 0, 0, 1, 0,0) ">
<use xlink:href="#Layer1_0_FILL"/>

<use xlink:href="#Layer1_0_1_STROKES"/>

<use xlink:href="#Layer1_0_2_STROKES"/>
</g>

<g transform="matrix( 1, 0, 0, 1, 0,0) ">
<use xlink:href="#Layer0_0_FILL"/>

<use xlink:href="#Layer0_0_1_STROKES"/>
</g>
</svg>
